<?xml version="1.0" encoding="UTF-8" standalone="no"?>
<svg
   xmlns:dc="http://purl.org/dc/elements/1.1/"
   xmlns:cc="http://creativecommons.org/ns#"
   xmlns:rdf="http://www.w3.org/1999/02/22-rdf-syntax-ns#"
   xmlns:svg="http://www.w3.org/2000/svg"
   xmlns="http://www.w3.org/2000/svg"
   id="svg8"
   version="1.1"
   viewBox="0 0 39.481537 16.8456"
   height="16.8456mm"
   width="39.481537mm">
  <defs
     id="defs2">
    <marker
       style="overflow:visible"
       id="Arrow1Lend"
       refX="0"
       refY="0"
       orient="auto">
      <path
         transform="matrix(-0.8,0,0,-0.8,-10,0)"
         style="fill:#000000;fill-opacity:1;fill-rule:evenodd;stroke:#000000;stroke-width:1.00000003pt;stroke-opacity:1"
         d="M 0,0 5,-5 -12.5,0 5,5 Z"
         id="path5187" />
    </marker>
    <marker
       style="overflow:visible"
       id="Arrow1Lstart"
       refX="0"
       refY="0"
       orient="auto">
      <path
         transform="matrix(0.8,0,0,0.8,10,0)"
         style="fill:#000000;fill-opacity:1;fill-rule:evenodd;stroke:#000000;stroke-width:1.00000003pt;stroke-opacity:1"
         d="M 0,0 5,-5 -12.5,0 5,5 Z"
         id="path5184" />
    </marker>
  </defs>
  <metadata
     id="metadata5">
    <rdf:RDF>
      <cc:Work
         rdf:about="">
        <dc:format>image/svg+xml</dc:format>
        <dc:type
           rdf:resource="http://purl.org/dc/dcmitype/StillImage" />
        <dc:title></dc:title>
      </cc:Work>
    </rdf:RDF>
  </metadata>
  <g
     transform="translate(-79.031011,-62.023959)"
     id="layer1">
    <rect
       y="64.561134"
       x="81.031906"
       height="12.046142"
       width="16.912071"
       id="rect5606"
       style="opacity:1;fill:#fc7371;fill-opacity:0;fill-rule:evenodd;stroke:#030000;stroke-width:0.05772658;stroke-miterlimit:4;stroke-dasharray:none;stroke-dashoffset:0;stroke-opacity:1" />
    <rect
       y="64.594543"
       x="99.640541"
       height="12.046142"
       width="16.912071"
       id="rect5606-0"
       style="opacity:1;fill:#fc7371;fill-opacity:0;fill-rule:evenodd;stroke:#030000;stroke-width:0.05772658;stroke-miterlimit:4;stroke-dasharray:none;stroke-dashoffset:0;stroke-opacity:1" />
    <g
       style="opacity:1;fill:#fc7371;fill-opacity:1;fill-rule:evenodd;stroke:#030000;stroke-width:0;stroke-miterlimit:4;stroke-dasharray:none;stroke-dashoffset:0;stroke-opacity:1"
       id="g5707">
      <path
         points="92.678626,68.088491 89.526913,67.806115 89.524779,72.676029 92.676491,72.962932 "
         d="m 92.676491,72.962932 0.0021,-4.874441 -3.151713,-0.282376 -0.0021,4.869914 z"
         style="fill:#353564;fill-rule:evenodd;stroke:none;stroke-width:0;stroke-linejoin:round"
         id="path5709" />
      <path
         points="85.808752,73.400108 85.81089,68.518687 89.526913,67.806115 89.524779,72.676029 "
         d="m 89.524779,72.676029 -3.716027,0.724079 0.0021,-4.881421 3.716023,-0.712572 z"
         style="fill:#e9e9ff;fill-rule:evenodd;stroke:none;stroke-width:0;stroke-linejoin:round"
         id="path5719" />
      <path
         points="88.964455,73.688365 85.808752,73.400108 89.524779,72.676029 92.676491,72.962932 "
         d="m 92.676491,72.962932 -3.712036,0.725433 -3.155703,-0.288257 3.716027,-0.724079 z"
         style="fill:#4d4d9f;fill-rule:evenodd;stroke:none;stroke-width:0;stroke-linejoin:round"
         id="path5711" />
      <path
         points="88.966595,68.802394 85.81089,68.518687 89.526913,67.806115 92.678626,68.088491 "
         d="m 92.678626,68.088491 -3.712031,0.713903 -3.155705,-0.283707 3.716023,-0.712572 z"
         style="fill:#afafde;fill-rule:evenodd;stroke:none;stroke-width:0;stroke-linejoin:round"
         id="path5717" />
      <path
         points="88.966595,68.802394 85.81089,68.518687 85.808752,73.400108 88.964455,73.688365 "
         d="m 88.964455,73.688365 0.0021,-4.885971 -3.155705,-0.283707 -0.0021,4.881421 z"
         style="fill:#d7d7ff;fill-rule:evenodd;stroke:none;stroke-width:0;stroke-linejoin:round"
         id="path5715" />
      <path
         points="88.964455,73.688365 88.966595,68.802394 92.678626,68.088491 92.676491,72.962932 "
         d="m 92.676491,72.962932 -3.712036,0.725433 0.0021,-4.885971 3.712031,-0.713903 z"
         style="fill:#8686bf;fill-rule:evenodd;stroke:none;stroke-width:0;stroke-linejoin:round"
         id="path5713" />
    </g>
    <path
       id="path5739"
       d="m 102.42018,66.434143 c 1.41438,0.879344 3.06204,1.02338 5.07999,0"
       style="fill:none;stroke:#000000;stroke-width:0.0854447;stroke-linecap:butt;stroke-linejoin:miter;stroke-miterlimit:4;stroke-dasharray:none;stroke-opacity:1" />
    <path
       id="path5741"
       d="m 102.42018,66.434143 -1.69334,7.14375"
       style="fill:none;stroke:#000000;stroke-width:0.0854447;stroke-linecap:butt;stroke-linejoin:miter;stroke-miterlimit:4;stroke-dasharray:none;stroke-opacity:1" />
    <path
       id="path5743"
       d="m 100.72684,73.577893 c 2.43691,1.661269 5.149,2.136146 8.46667,0 l -1.69334,-7.14375"
       style="fill:none;stroke:#000000;stroke-width:0.0854447;stroke-linecap:butt;stroke-linejoin:miter;stroke-miterlimit:4;stroke-dasharray:none;stroke-opacity:1" />
    <path
       id="path5767"
       d="m 110.51631,67.922331 c 0.0164,-0.01662 0.033,-0.03315 0.0496,-0.04961 0.0757,-0.07501 0.15384,-0.14887 0.24429,-0.205263 0.0905,-0.05639 0.19487,-0.09479 0.30143,-0.0924 0.0759,0.0017 0.15056,0.02408 0.2176,0.05966 0.067,0.03558 0.12668,0.08409 0.1793,0.138784 0.0482,0.05013 0.0919,0.106467 0.15117,0.142904 0.0296,0.01822 0.0631,0.03107 0.0978,0.03343 0.0347,0.0024 0.0707,-0.0064 0.0983,-0.0275 0.0298,-0.02278 0.0477,-0.05774 0.0606,-0.09293 0.0129,-0.0352 0.0219,-0.07198 0.0386,-0.105513 0.0336,-0.06724 0.0975,-0.116815 0.16877,-0.140826 0.0712,-0.02401 0.14917,-0.02388 0.22268,-0.0082 0.14703,0.03141 0.27353,0.12105 0.40233,0.19861 0.09,0.05417 0.18373,0.103582 0.28435,0.133644 0.10062,0.03006 0.20897,0.04008 0.31099,0.01519 0.087,-0.02122 0.1658,-0.06656 0.24491,-0.108512 0.0791,-0.04195 0.16204,-0.08166 0.2512,-0.08993 0.0869,-0.0081 0.17399,0.01445 0.25537,0.04598 0.0814,0.03154 0.15903,0.07219 0.24075,0.102851 0.30668,0.115074 0.66661,0.07719 0.94261,-0.09922"
       style="fill:none;stroke:#000000;stroke-width:0.08869101;stroke-linecap:round;stroke-linejoin:miter;stroke-miterlimit:4;stroke-dasharray:none;stroke-opacity:1" />
    <path
       id="path5767-8"
       d="m 110.59375,70.033625 c 0.0158,-0.01608 0.0317,-0.03208 0.0477,-0.04799 0.0731,-0.07276 0.14866,-0.144266 0.23621,-0.198795 0.0875,-0.05453 0.18863,-0.09157 0.29174,-0.08919 0.0734,0.0017 0.14565,0.02335 0.21051,0.05777 0.0649,0.03441 0.12257,0.08133 0.1735,0.134221 0.0467,0.04848 0.0889,0.102955 0.14627,0.138198 0.0287,0.01762 0.061,0.03006 0.0946,0.03235 0.0336,0.0023 0.0684,-0.0061 0.0951,-0.02655 0.0288,-0.02203 0.0462,-0.05584 0.0587,-0.0899 0.0125,-0.03405 0.0212,-0.06966 0.0375,-0.102095 0.0326,-0.06501 0.0944,-0.112929 0.16334,-0.136138 0.0689,-0.02321 0.14429,-0.02308 0.21541,-0.0079 0.14223,0.03036 0.26463,0.117022 0.38923,0.192026 0.087,0.0524 0.17777,0.100195 0.27511,0.129282 0.0974,0.02909 0.20216,0.03879 0.30087,0.01471 0.0842,-0.02052 0.16041,-0.06439 0.23695,-0.104982 0.0765,-0.04059 0.15677,-0.07901 0.24304,-0.08701 0.0841,-0.0078 0.16832,0.01398 0.24705,0.04449 0.0787,0.03051 0.15385,0.06984 0.23291,0.09951 0.29671,0.11134 0.64494,0.07469 0.91197,-0.09599"
       style="fill:none;stroke:#000000;stroke-width:0.08580697;stroke-linecap:round;stroke-linejoin:miter;stroke-miterlimit:4;stroke-dasharray:none;stroke-opacity:1" />
    <path
       id="path5767-8-9"
       d="m 110.51631,72.155665 c 0.0164,-0.01662 0.033,-0.03315 0.0496,-0.04961 0.0757,-0.07501 0.15384,-0.14887 0.24429,-0.205263 0.0905,-0.05639 0.19487,-0.09479 0.30143,-0.0924 0.0759,0.0017 0.15056,0.02408 0.2176,0.05966 0.067,0.03558 0.12668,0.08409 0.1793,0.138784 0.0482,0.05013 0.0919,0.106467 0.15117,0.142904 0.0296,0.01822 0.0631,0.03107 0.0978,0.03343 0.0347,0.0024 0.0707,-0.0064 0.0983,-0.0275 0.0298,-0.02278 0.0477,-0.05774 0.0606,-0.09293 0.0129,-0.0352 0.0219,-0.07198 0.0386,-0.105513 0.0336,-0.06724 0.0975,-0.116815 0.16877,-0.140826 0.0712,-0.02401 0.14917,-0.02388 0.22268,-0.0082 0.14703,0.03141 0.27353,0.12105 0.40233,0.19861 0.09,0.05417 0.18373,0.103582 0.28435,0.133644 0.10062,0.03006 0.20897,0.04008 0.31099,0.01519 0.087,-0.02122 0.1658,-0.06656 0.24491,-0.108512 0.0791,-0.04195 0.16204,-0.08166 0.2512,-0.08993 0.0869,-0.0081 0.17399,0.01444 0.25537,0.04598 0.0814,0.03154 0.15903,0.07219 0.24075,0.102851 0.30668,0.115074 0.66661,0.07719 0.94261,-0.09922"
       style="fill:none;stroke:#000000;stroke-width:0.08869101;stroke-linecap:round;stroke-linejoin:miter;stroke-miterlimit:4;stroke-dasharray:none;stroke-opacity:1" />
  </g>
</svg>
