<?xml version="1.0" encoding="UTF-8" standalone="no"?>
<svg
   xmlns:dc="http://purl.org/dc/elements/1.1/"
   xmlns:cc="http://creativecommons.org/ns#"
   xmlns:rdf="http://www.w3.org/1999/02/22-rdf-syntax-ns#"
   xmlns:svg="http://www.w3.org/2000/svg"
   xmlns="http://www.w3.org/2000/svg"
   id="svg8"
   version="1.1"
   viewBox="0 0 61.320801 50.188797"
   height="50.188797mm"
   width="61.320801mm">
  <defs
     id="defs2" />
  <metadata
     id="metadata5">
    <rdf:RDF>
      <cc:Work
         rdf:about="">
        <dc:format>image/svg+xml</dc:format>
        <dc:type
           rdf:resource="http://purl.org/dc/dcmitype/StillImage" />
        <dc:title></dc:title>
      </cc:Work>
    </rdf:RDF>
  </metadata>
  <g
     transform="translate(-67.147266,-52.992168)"
     id="layer1">
    <rect
       y="53.017998"
       x="67.173096"
       height="50.137138"
       width="61.269142"
       id="rect5165"
       style="opacity:1;fill:#dddedd;fill-opacity:1;fill-rule:evenodd;stroke:#030000;stroke-width:0.05165995;stroke-miterlimit:4;stroke-dasharray:none;stroke-dashoffset:0;stroke-opacity:1" />
    <path
       id="path5170"
       d="m 96.976562,66.732422 c -1.34821,0.04721 -2.633016,0.555766 -3.793599,1.214765 -1.04614,0.579265 -2.05792,1.279273 -3.238173,1.556926 -1.201166,0.297266 -2.433043,0.478735 -3.604946,0.886512 -0.641504,0.345236 -1.023819,0.996523 -1.385376,1.60162 -0.594592,1.10458 -0.726643,2.389691 -0.684918,3.625086 0.06401,1.584746 0.439951,3.132751 0.703106,4.691263 0.167907,0.779764 0.770673,1.368247 1.39883,1.813133 0.975894,0.695846 2.013535,1.298511 3.02308,1.943161 0.779597,0.492967 1.575416,0.964518 2.317519,1.513333 1.995279,1.603691 3.985387,3.21386 5.99104,4.804591 1.204986,0.609081 2.770995,0.466478 3.806525,-0.415695 0.91722,-0.75995 1.46193,-1.84474 2.03491,-2.864434 0.76568,-1.395318 1.52357,-2.797719 2.40271,-4.126121 1.43012,-1.373568 3.13815,-2.416607 4.57421,-3.783203 0.34641,-0.379797 0.63059,-0.844504 0.6836,-1.365234 -0.12192,-0.605695 -0.60742,-1.03283 -1.01272,-1.461935 -1.66514,-1.650157 -3.27876,-3.354113 -4.78752,-5.149185 -0.86205,-0.991149 -1.69113,-2.016204 -2.63939,-2.927638 -0.30522,-0.271196 -0.60385,-0.560024 -0.95787,-0.766533 -0.90567,-0.416348 -1.925524,-0.380746 -2.886545,-0.571429 -0.641965,-0.117278 -1.287707,-0.256106 -1.944473,-0.218983 z"
       style="opacity:1;fill:#fc7371;fill-opacity:1;fill-rule:evenodd;stroke:#030000;stroke-width:0.08;stroke-miterlimit:4;stroke-dasharray:none;stroke-dashoffset:0;stroke-opacity:1" />
  </g>
</svg>
